<?xml version="1.0" encoding="UTF-8" standalone="no"?>
<!-- Created with Inkscape (http://www.inkscape.org/) -->

<svg
   xmlns:dc="http://purl.org/dc/elements/1.1/"
   xmlns:cc="http://creativecommons.org/ns#"
   xmlns:rdf="http://www.w3.org/1999/02/22-rdf-syntax-ns#"
   xmlns:svg="http://www.w3.org/2000/svg"
   xmlns="http://www.w3.org/2000/svg"
   xmlns:sodipodi="http://sodipodi.sourceforge.net/DTD/sodipodi-0.dtd"
   xmlns:inkscape="http://www.inkscape.org/namespaces/inkscape"
   width="210mm"
   height="297mm"
   viewBox="0 0 210 297"
   version="1.1"
   id="svg8"
   sodipodi:docname="drawing.svg"
   inkscape:version="">
  <defs
     id="defs2" />
  <sodipodi:namedview
     id="base"
     pagecolor="#ffffff"
     bordercolor="#666666"
     borderopacity="1.0"
     inkscape:pageopacity="0.0"
     inkscape:pageshadow="2"
     inkscape:zoom="0.35"
     inkscape:cx="797.40157"
     inkscape:cy="751.23896"
     inkscape:document-units="mm"
     inkscape:current-layer="layer1"
     showgrid="false"
     inkscape:window-width="1865"
     inkscape:window-height="1063"
     inkscape:window-x="45"
     inkscape:window-y="226"
     inkscape:window-maximized="0" />
  <metadata
     id="metadata5">
    <rdf:RDF>
      <cc:Work
         rdf:about="">
        <dc:format>image/svg+xml</dc:format>
        <dc:type
           rdf:resource="http://purl.org/dc/dcmitype/StillImage" />
        <dc:title></dc:title>
      </cc:Work>
    </rdf:RDF>
  </metadata>
  <g
     inkscape:label="Layer 1"
     inkscape:groupmode="layer"
     id="layer1">
    <g
       id="duecerchi"
       item="concentrico"
       transform="translate(-6.8035714)">
      <ellipse
         ry="68.413696"
         rx="75.217262"
         cy="162.81845"
         cx="120.57439"
         id="ellipse"
         style="fill:#00ff00;stroke:#007cff;stroke-width:2;stroke-miterlimit:4;stroke-dasharray:none;stroke-opacity:1" />
      <g
         id="gr2">
        <ellipse
           ry="28.726189"
           rx="31.372023"
           cy="170.75595"
           cx="123.59821"
           id="cerchio_blu"
           style="fill:#0000ff;stroke:#007cff;stroke-width:2;stroke-miterlimit:4;stroke-dasharray:none;stroke-opacity:1" />
        <path
           sodipodi:type="star"
           style="fill:#ffe6d5;stroke:#007cff;stroke-width:2;stroke-miterlimit:4;stroke-dasharray:none;stroke-opacity:1"
           id="stellina"
           sodipodi:sides="5"
           sodipodi:cx="120.19643"
           sodipodi:cy="170.75595"
           sodipodi:r1="21.408272"
           sodipodi:r2="10.704136"
           sodipodi:arg1="0.73543977"
           sodipodi:arg2="1.3637583"
           inkscape:flatsided="false"
           inkscape:rounded="0"
           inkscape:randomized="0"
           d="m 136.07143,185.11905 -13.67464,-3.88756 -10.95483,9.06092 -0.52841,-14.20667 -12.002683,-7.61869 13.348063,-4.89265 3.53677,-13.76953 8.77796,11.18285 14.18853,-0.89135 -7.92298,11.80403 z"
           inkscape:transform-center-x="1.1521911"
           inkscape:transform-center-y="-0.57476024"
           transform="matrix(0.84726008,0,0,0.81259995,14.727372,27.695396)" />
      </g>
    </g>
    <path
       sodipodi:type="star"
       style="fill:#00ff00;stroke:#007cff;stroke-width:2;stroke-miterlimit:4;stroke-dasharray:none;stroke-opacity:1"
       id="stella"
       sodipodi:sides="5"
       sodipodi:cx="34.773808"
       sodipodi:cy="266.00595"
       sodipodi:r1="21.620768"
       sodipodi:r2="10.810383"
       sodipodi:arg1="0.63650822"
       sodipodi:arg2="1.2648267"
       inkscape:flatsided="false"
       inkscape:rounded="0"
       inkscape:randomized="0"
       d="m 52.160713,278.85714 -14.130625,-2.54289 -10.10564,10.19887 -1.948169,-14.22482 -12.822514,-6.45941 12.92659,-6.24853 2.180891,-14.19101 9.937241,10.36302 14.170379,-2.31111 -6.785038,12.65322 z"
       inkscape:transform-center-x="2.012493"
       inkscape:transform-center-y="-0.054719554"
       item="true" />
  </g>
  <path
     sodipodi:type="spiral"
     style="fill:none;fill-rule:evenodd;stroke:#000000;stroke-width:0.26458332"
     id="spirale"
     sodipodi:cx="52.160717"
     sodipodi:cy="49.80357"
     sodipodi:expansion="1"
     sodipodi:revolution="3"
     sodipodi:radius="48.156006"
     sodipodi:argument="-18.108574"
     sodipodi:t0="0.045733768"
     d="m 52.08971,52.00478 c -2.066716,2.246674 -5.339142,-0.256275 -6.141118,-2.401601 -1.717635,-4.594764 2.194041,-9.084488 6.541901,-10.022648 6.836306,-1.475106 12.947865,4.144888 13.904177,10.682199 1.322153,9.038182 -6.099485,16.850504 -14.822498,17.785707 C 40.342092,69.252426 30.801245,59.993793 29.904935,49.085641 28.802357,35.667185 39.914822,24.384665 53.00803,23.536874 68.613332,22.526424 81.644859,35.502014 82.438327,50.780268 83.362313,68.571654 68.517931,83.356721 51.054635,84.092094 31.077583,84.93332 14.535966,68.216437 13.861279,48.568103 13.10026,26.405634 31.692206,8.1053652 53.525568,7.4932173 77.873299,6.8105734 97.933749,27.279424 98.481984,51.297805 98.738337,62.528774 94.816233,73.640154 87.690509,82.309489"
     item="sparzaiol" />
  <rect
     style="fill:#00ff00;stroke:#007cff;stroke-width:2;stroke-miterlimit:4;stroke-dasharray:none;stroke-opacity:1"
     id="rettangolo"
     width="56"
     height="42.333332"
     x="65.744049"
     y="21.077379"
     item="rect" />
</svg>
