<?xml version="1.0" encoding="UTF-8" standalone="no"?>
<svg
   xmlns:dc="http://purl.org/dc/elements/1.1/"
   xmlns:cc="http://creativecommons.org/ns#"
   xmlns:rdf="http://www.w3.org/1999/02/22-rdf-syntax-ns#"
   xmlns:svg="http://www.w3.org/2000/svg"
   xmlns="http://www.w3.org/2000/svg"
   id="svg8"
   version="1.1"
   viewBox="0 0 210 297"
   height="297mm"
   width="210mm">
  <defs
     id="defs2" />
  <metadata
     id="metadata5">
    <rdf:RDF>
      <cc:Work
         rdf:about="">
        <dc:format>image/svg+xml</dc:format>
        <dc:type
           rdf:resource="http://purl.org/dc/dcmitype/StillImage" />
        <dc:title></dc:title>
      </cc:Work>
    </rdf:RDF>
  </metadata>
  <g
     id="layer1">
    <g
       item="concentrico"
       id="duecerchi">
      <ellipse
         style="fill:#00ff00;stroke:#007cff;stroke-width:2;stroke-miterlimit:4;stroke-dasharray:none;stroke-opacity:1"
         id="ellipse"
         cx="120.57439"
         cy="162.81845"
         rx="75.217262"
         ry="68.413696" />
      <ellipse
         ry="28.726189"
         rx="31.372023"
         cy="170.75595"
         cx="123.59821"
         id="rettangolo_blu"
         style="fill:#0000ff;stroke:#007cff;stroke-width:2;stroke-miterlimit:4;stroke-dasharray:none;stroke-opacity:1" />
    </g>
    <path
       item="true"
       d="m 52.160713,278.85714 -14.130625,-2.54289 -10.10564,10.19887 -1.948169,-14.22482 -12.822514,-6.45941 12.92659,-6.24853 2.180891,-14.19101 9.937241,10.36302 14.170379,-2.31111 -6.785038,12.65322 z"
       id="stella"
       style="fill:#00ff00;stroke:#007cff;stroke-width:2;stroke-miterlimit:4;stroke-dasharray:none;stroke-opacity:1" />
  </g>
  <path
     item="sparzaiol"
     d="m 52.08971,52.00478 c -2.066716,2.246674 -5.339142,-0.256275 -6.141118,-2.401601 -1.717635,-4.594764 2.194041,-9.084488 6.541901,-10.022648 6.836306,-1.475106 12.947865,4.144888 13.904177,10.682199 1.322153,9.038182 -6.099485,16.850504 -14.822498,17.785707 C 40.342092,69.252426 30.801245,59.993793 29.904935,49.085641 28.802357,35.667185 39.914822,24.384665 53.00803,23.536874 68.613332,22.526424 81.644859,35.502014 82.438327,50.780268 83.362313,68.571654 68.517931,83.356721 51.054635,84.092094 31.077583,84.93332 14.535966,68.216437 13.861279,48.568103 13.10026,26.405634 31.692206,8.1053652 53.525568,7.4932173 77.873299,6.8105734 97.933749,27.279424 98.481984,51.297805 98.738337,62.528774 94.816233,73.640154 87.690509,82.309489"
     id="spirale"
     style="fill:none;fill-rule:evenodd;stroke:#000000;stroke-width:0.26458332" />
  <rect
     item="rect"
     y="25.613094"
     x="132.29167"
     height="42.333332"
     width="53.672619"
     id="rettangolo"
     style="fill:#00ff00;stroke:#007cff;stroke-width:2;stroke-miterlimit:4;stroke-dasharray:none;stroke-opacity:1" />
</svg>
